<svg width="48" height="48" viewBox="0 0 48 48" fill="none" xmlns="http://www.w3.org/2000/svg">
<g clip-path="url(#clip0_121_5)">
<mask id="mask0_121_5" style="mask-type:alpha" maskUnits="userSpaceOnUse" x="0" y="0" width="48" height="48">
<circle cx="24" cy="24" r="24" fill="white"/>
</mask>
<g mask="url(#mask0_121_5)">
<circle cx="24" cy="24" r="24" fill="white"/>
<path d="M21.0169 21C20.6194 21 20.2383 21.158 19.9573 21.4393C19.6762 21.7207 19.5184 22.1022 19.5184 22.5C19.5184 22.8978 19.6762 23.2794 19.9573 23.5607C20.2383 23.842 20.6194 24 21.0169 24C21.4143 24 21.7954 23.842 22.0765 23.5607C22.3575 23.2794 22.5154 22.8978 22.5154 22.5C22.5154 22.1022 22.3575 21.7207 22.0765 21.4393C21.7954 21.158 21.4143 21 21.0169 21ZM27.0109 21C26.6134 21 26.2323 21.158 25.9513 21.4393C25.6702 21.7207 25.5124 22.1022 25.5124 22.5C25.5124 22.8978 25.6702 23.2794 25.9513 23.5607C26.2323 23.842 26.6134 24 27.0109 24C27.4083 24 27.7894 23.842 28.0705 23.5607C28.3515 23.2794 28.5094 22.8978 28.5094 22.5C28.5094 22.1022 28.3515 21.7207 28.0705 21.4393C27.7894 21.158 27.4083 21 27.0109 21ZM19.5184 28.5001C19.5184 35.8802 10.887 36.0002 10.5273 36.0002V39.0002C14.6782 39.0002 22.5154 36.8102 22.5154 28.5001V27.0001H19.5184V28.5001ZM28.5094 28.5001V27.0001H25.5124V28.5001C25.5124 32.8202 27.6402 36.0302 31.6712 37.7552C34.5483 38.9852 37.3805 39.0002 37.5004 39.0002V36.0002C37.1407 36.0002 28.5094 35.8802 28.5094 28.5001Z" fill="black"/>
<path d="M36.003 28.5003C36.003 29.3253 35.3287 30.0003 34.5045 30.0003C33.6803 30.0003 33.006 29.3253 33.006 28.5003C33.006 26.2802 33.5305 24.1652 33.9351 22.4702C34.04 22.0202 34.1449 21.5852 34.2348 21.1952C34.5794 19.6051 34.5195 17.9401 34.025 16.3801C32.6464 11.97 28.6304 9 24 9C19.3696 9 15.3536 11.97 13.975 16.3801C13.4946 17.9407 13.4223 19.5986 13.7652 21.1952C13.8551 21.5852 13.96 22.0052 14.0649 22.4702C14.4845 24.1652 14.994 26.2802 14.994 28.5003C14.994 29.3253 14.3197 30.0003 13.4955 30.0003C12.6713 30.0003 11.997 29.3253 11.997 28.5003V27.0002H9V28.5003C9 30.9753 11.023 33.0003 13.4955 33.0003C15.968 33.0003 17.991 30.9753 17.991 28.5003C17.991 26.0252 17.4216 23.6102 16.972 21.7502C16.8671 21.3152 16.7622 20.9102 16.6873 20.5502C16.4459 19.4612 16.4976 18.3275 16.8372 17.2651C17.8112 14.1151 20.6883 12 24 12C27.3117 12 30.1738 14.1151 31.1628 17.2651C31.4925 18.3301 31.5375 19.4701 31.3127 20.5502C31.2378 20.9252 31.1329 21.3152 31.028 21.7502C30.5784 23.6102 30.009 25.9202 30.009 28.5003C30.009 31.0803 32.032 33.0003 34.5045 33.0003C36.977 33.0003 39 30.9753 39 28.5003V27.0002H36.003V28.5003Z" fill="black"/>
</g>
</g>
<defs>
<clipPath id="clip0_121_5">
<rect width="48" height="48" fill="white"/>
</clipPath>
</defs>
</svg>
