<svg width="48" height="48" viewBox="0 0 48 48" fill="none" xmlns="http://www.w3.org/2000/svg">
<g clip-path="url(#clip0_121_5)">
<mask id="mask0_121_5" style="mask-type:alpha" maskUnits="userSpaceOnUse" x="0" y="0" width="48" height="48">
<circle cx="24" cy="24" r="24" fill="white"/>
</mask>
<g mask="url(#mask0_121_5)">
<circle cx="24" cy="24" r="24" fill="white"/>
<path d="M36.8356 19.6646C36.9475 19.1634 36.9529 18.6442 36.8513 18.1408C36.7498 17.6374 36.5437 17.1609 36.2463 16.7422C29.1721 5.6022 12.2708 9.0072 9.36366 21.5295C8.93829 23.3906 8.88551 25.3174 9.20834 27.1989C9.53117 29.0805 10.2232 30.8795 11.2447 32.4923C11.5042 32.9521 11.8592 33.3509 12.2859 33.6618C12.7125 33.9728 13.2009 34.1887 13.718 34.295C14.2351 34.4013 14.769 34.3956 15.2837 34.2782C15.7984 34.1608 16.282 33.9345 16.7019 33.6144C16.7443 33.6112 35.172 21.9412 35.2291 21.925C35.6331 21.6733 35.9832 21.3439 36.259 20.9558C36.5347 20.5678 36.7307 20.1289 36.8356 19.6646Z" fill="black"/>
<path d="M24.5021 42.22C22.8384 41.0976 21.5369 39.5157 20.7562 37.6669C20.1587 37.7489 19.5501 37.6766 18.9883 37.457C19.7804 39.9438 21.3945 42.0874 23.5656 43.5359C24.9115 44.4504 26.0117 45.6822 26.7692 47.1224C27.5266 48.5626 27.918 50.1671 27.9088 51.7944C27.9123 52.0756 27.8907 52.3566 27.8443 52.6339C27.8252 52.75 27.8315 52.8689 27.8628 52.9823C27.8941 53.0957 27.9497 53.201 28.0257 53.2908C28.1017 53.3806 28.1963 53.4529 28.303 53.5025C28.4096 53.5522 28.5258 53.5781 28.6435 53.5785C29.5775 53.4156 29.4369 52.9738 29.5234 51.8348C29.538 49.9435 29.0876 48.0775 28.2121 46.401C27.3365 44.7245 26.0625 43.2888 24.5021 42.22Z" fill="black"/>
<path d="M40.9786 31.8303C39.2122 30.6541 37.8619 28.9506 37.1198 26.9624C36.8759 27.5461 36.4696 28.0476 35.9492 28.4074C36.8735 30.3238 38.2884 31.9615 40.0502 33.1543C41.3939 34.0706 42.4919 35.3029 43.2478 36.7429C44.0037 38.1829 44.3943 39.7865 44.3854 41.4128C44.3731 42.2821 44.0436 43.0397 45.12 43.197C46.0524 43.0296 45.9135 42.5841 46 41.4451C46.0136 39.554 45.5629 37.6884 44.6874 36.012C43.8119 34.3357 42.5384 32.8998 40.9786 31.8303Z" fill="black"/>
<path d="M41.7603 43.867C40.0975 43.2591 38.6288 42.2152 37.5082 40.8446C36.3876 39.474 35.6562 37.8271 35.3909 36.0767C35.0705 33.9831 34.2077 32.0098 32.8883 30.353L31.5078 31.2249C32.7294 32.69 33.5228 34.4639 33.8005 36.3512C34.0933 38.2214 34.8403 39.9913 35.9761 41.5057C37.1119 43.0201 38.6018 44.2328 40.3153 45.0376C40.6963 45.2473 41.112 45.3868 41.5424 45.4493C41.735 45.4456 41.9199 45.3733 42.0639 45.2453C42.2079 45.1173 42.3015 44.9422 42.3278 44.7513C42.3541 44.5605 42.3113 44.3665 42.2073 44.2044C42.1033 44.0423 41.9448 43.9226 41.7603 43.867Z" fill="black"/>
<path d="M19.8477 36.0372C20.0772 36.0935 20.3159 36.1025 20.549 36.0636C20.7822 36.0248 21.005 35.9389 21.2039 35.8112L24.8851 33.4943C24.9174 33.4701 24.9578 33.4458 24.9981 33.4216C27.346 31.9383 32.6348 28.6013 34.9358 27.1571C35.3316 26.8985 35.6111 26.496 35.7151 26.0349C35.8191 25.5737 35.7393 25.0902 35.4928 24.6868L35.0327 23.9521L18.2734 34.5195C18.6482 35.1258 19.0623 35.9202 19.8477 36.0372Z" fill="black"/>
<path d="M29.9899 38.7574C28.4079 37.6896 27.1509 36.2064 26.3571 34.4707L24.9766 35.3345C25.8982 37.2455 27.3071 38.88 29.0614 40.0732C30.4057 40.9913 31.5045 42.225 32.2617 43.6661C33.0189 45.1072 33.4113 46.7119 33.4046 48.3399C33.3687 49.2105 33.0963 49.9987 34.1312 50.1159C35.0713 49.9539 34.9225 49.5118 35.0192 48.3722C35.0304 46.4806 34.5778 44.6151 33.701 42.9389C32.8243 41.2628 31.55 39.827 29.9899 38.7574Z" fill="black"/>
</g>
</g>
<defs>
<clipPath id="clip0_121_5">
<rect width="48" height="48" fill="white"/>
</clipPath>
</defs>
</svg>
